<?xml version="1.0" encoding="UTF-8"?>
<svg version="1.1" xmlns="http://www.w3.org/2000/svg" width="500" height="500">
<path d="M0 0 C165 0 330 0 500 0 C500 165 500 330 500 500 C335 500 170 500 0 500 C0 335 0 170 0 0 Z " fill="#001040" transform="translate(0,0)"/>
<path d="M0 0 C0.75775223 -0.00696899 1.51550446 -0.01393799 2.29621887 -0.02111816 C4.73529649 -0.0384534 7.17414456 -0.04483999 9.61328125 -0.046875 C10.4439209 -0.04788208 11.27456055 -0.04888916 12.13037109 -0.04992676 C24.59733433 -0.03968423 36.73586902 0.33418294 48.92578125 3.203125 C50.12074219 3.4815625 51.31570312 3.76 52.546875 4.046875 C68.48814045 8.40302763 81.97231068 17.10452649 90.4609375 31.4453125 C96.40428215 42.63464936 98.2943671 53.41839036 98.17578125 66.015625 C98.16756348 67.07515381 98.1593457 68.13468262 98.15087891 69.22631836 C97.86244912 89.42415694 92.71775841 105.99761892 78.67578125 120.890625 C59.67341862 139.15221756 33.88793666 143.58608843 8.56933594 143.46386719 C5.93010491 143.45314257 3.29155429 143.46382216 0.65234375 143.4765625 C-8.7941201 143.48320932 -17.78186336 143.06413961 -27.07421875 141.203125 C-26.98055691 147.58560201 -26.87310814 153.96774881 -26.75683594 160.34985352 C-26.71895827 162.51321377 -26.68404037 164.67662824 -26.65234375 166.84008789 C-27.73059892 188.82275632 -27.73059892 188.82275632 -22.07421875 209.203125 C-19.23533186 210.98057763 -16.37406504 212.51323441 -13.39257812 214.02734375 C-8.83093907 216.46086426 -6.00450414 218.89840932 -3.07421875 223.203125 C-2.06110131 227.63551378 -2.56955483 231.83756381 -4.13671875 236.078125 C-11.32816661 243.96551943 -22.92688052 244.81116071 -32.99572754 245.36334229 C-39.58058714 245.58504202 -46.16172483 245.5876152 -52.74951172 245.53930664 C-56.20043222 245.51561667 -59.65058055 245.51878142 -63.1015625 245.52539062 C-96.7995409 245.48328803 -96.7995409 245.48328803 -106.07421875 239.203125 C-110.13941084 235.03878188 -110.55135198 231.33658745 -110.703125 225.765625 C-109.64359355 221.44852791 -106.95678962 218.5139924 -103.38354492 216.02587891 C-101.57699768 214.96279818 -99.75002914 213.97551217 -97.88671875 213.015625 C-92.82525634 210.42969057 -92.82525634 210.42969057 -89.07421875 206.203125 C-88.61965525 203.60052613 -88.27340514 201.07618206 -88.01171875 198.453125 C-87.93539593 197.69735168 -87.8590731 196.94157837 -87.78043747 196.16290283 C-87.18958861 189.96142897 -86.79210848 183.77044585 -86.52832031 177.546875 C-86.48606953 176.55427673 -86.44381874 175.56167847 -86.40028763 174.53900146 C-85.96313252 163.51143493 -85.89117857 152.48810718 -85.87109375 141.453125 C-85.86826637 140.37760376 -85.865439 139.30208252 -85.86252594 138.19396973 C-85.84770959 132.51342542 -85.83836721 126.83290539 -85.83398438 121.15234375 C-85.8284916 115.36743079 -85.80439489 109.58275212 -85.77601242 103.7979126 C-85.75718767 99.26936221 -85.75217026 94.74086645 -85.7506485 90.21228027 C-85.74767158 88.08214015 -85.73981745 85.95199976 -85.72646332 83.82189941 C-85.66137086 72.65336218 -85.99907547 61.63429797 -87.28222656 50.53125 C-87.38190105 49.56765564 -87.48157555 48.60406128 -87.58427048 47.61126709 C-88.17028692 43.13992402 -88.62765172 40.76128042 -91.50042725 37.1706543 C-94.2701999 35.05330764 -97.05336086 33.39111203 -100.13671875 31.765625 C-108.06249626 27.23243122 -108.06249626 27.23243122 -110.07421875 22.203125 C-110.70938791 17.89468842 -110.58828939 14.42066072 -108.88671875 10.390625 C-105.17872469 5.91545976 -101.65811792 3.72068372 -96.07421875 2.203125 C-93.37157976 2.00725195 -90.7697334 1.90234193 -88.06860352 1.90014648 C-87.28893219 1.89170715 -86.50926086 1.88326782 -85.70596313 1.87457275 C-83.14251046 1.84889741 -80.57917292 1.83667584 -78.015625 1.82421875 C-76.22492071 1.80802975 -74.43422514 1.79084829 -72.64353943 1.77272034 C-67.93631034 1.72711367 -63.22906923 1.69227484 -58.52172852 1.66052246 C-50.99154698 1.60858798 -43.46149497 1.54321418 -35.93147087 1.47230721 C-33.30870057 1.44959182 -30.68594631 1.43324363 -28.06312561 1.41758728 C-26.44515816 1.40417034 -24.82719235 1.39055467 -23.20922852 1.37670898 C-22.4864119 1.37409561 -21.76359528 1.37148224 -21.01887512 1.36878967 C-13.95937323 1.29743422 -7.07043811 0.04373974 0 0 Z " fill="#FDFDFE" transform="translate(133.07421875,123.796875)"/>
<path d="M0 0 C1.09538086 -0.01836914 1.09538086 -0.01836914 2.21289062 -0.03710938 C10.81578968 -0.05996916 19.22436133 1.63078694 25.5234375 7.88671875 C41.10907855 26.3990752 49.34280577 54.04719447 58.3125 76.1875 C58.73836395 77.23453094 59.16422791 78.28156189 59.60299683 79.36032104 C65.8066525 94.61291591 71.88931689 109.91065838 77.875 125.25 C78.23671295 126.17640289 78.5984259 127.10280579 78.97109985 128.05728149 C82.43408567 136.92904425 85.89010258 145.80347971 89.32910156 154.68457031 C91.46173431 160.19027169 93.60619524 165.69125106 95.75753784 171.18966675 C96.57448888 173.28410584 97.38721687 175.38019795 98.19534302 177.47805786 C105.62853296 198.69635898 105.62853296 198.69635898 121.8125 213.1875 C124.38311733 214.27167989 126.97144353 215.278195 129.58203125 216.26171875 C133.4764457 217.87813946 135.93801763 220.19641998 138.6875 223.3125 C140.4289198 227.76279505 140.22651273 231.63933534 138.8125 236.1875 C133.4437661 243.81173749 123.49257234 245.24854027 114.91964722 246.76843262 C109.44454342 247.50687121 103.98924371 247.47214437 98.47265625 247.453125 C96.6076371 247.45599518 96.6076371 247.45599518 94.7049408 247.45892334 C92.09048255 247.46027688 89.47601738 247.4566389 86.86157227 247.44824219 C82.88998099 247.43754037 78.91884294 247.44816162 74.94726562 247.4609375 C72.39322818 247.45961558 69.83919102 247.45705252 67.28515625 247.453125 C66.11292007 247.45717346 64.9406839 247.46122192 63.73292542 247.46539307 C52.88350456 247.40458343 41.74461638 247.05252363 32.8125 240.1875 C29.9757097 236.8570687 28.93435246 234.26386343 28.4375 229.875 C28.89828728 225.34392503 30.39710312 223.02321943 33.8125 220.1875 C36.10265004 218.75813049 38.41399167 217.48086554 40.82421875 216.265625 C42.96035025 215.22934687 42.96035025 215.22934687 44.8125 213.1875 C46.17853702 203.11297698 41.42388954 192.7694042 36.0625 184.375 C32.34885592 180.11950386 28.2379936 179.81658396 22.8125 179.1875 C17.87824789 178.92080077 12.95160857 178.9050387 8.01171875 178.921875 C6.60309279 178.92052454 5.19446728 178.91858084 3.7858429 178.91607666 C0.85352073 178.91314815 -2.07867857 178.91735232 -5.01098633 178.92675781 C-8.76118032 178.93820411 -12.51108958 178.93154606 -16.26127338 178.91961288 C-19.16182086 178.91237749 -22.06230104 178.914689 -24.96285057 178.91986847 C-26.34588849 178.92119759 -27.72893261 178.91958323 -29.11196327 178.91490936 C-31.04249575 178.90981084 -32.97304985 178.91896413 -34.90356445 178.92871094 C-35.99925247 178.93030212 -37.09494049 178.93189331 -38.22383118 178.93353271 C-42.61692704 179.30999267 -45.29758432 180.24074664 -48.328125 183.46484375 C-53.47119331 190.9957652 -55.72957047 198.51754285 -55.8515625 207.59375 C-54.92267312 211.22188262 -53.27813079 212.15262188 -50.1875 214.1875 C-48.20462625 215.34241849 -46.20376906 216.46692523 -44.1875 217.5625 C-39.40331098 220.33756531 -35.94931277 222.35432766 -33.1875 227.1875 C-32.11668743 231.69761733 -32.75054783 234.43011623 -35.0625 238.4375 C-43.79377584 247.36280419 -58.73255618 247.13394064 -70.33203125 247.375 C-72.97128608 247.40316777 -75.61062984 247.42391168 -78.25 247.4375 C-80.13090332 247.45151855 -80.13090332 247.45151855 -82.04980469 247.46582031 C-95.48050218 247.4201735 -109.27451298 247.15846476 -119.8125 237.875 C-121.6865608 234.21206299 -122.13981392 231.14791663 -121.1875 227.1875 C-117.27709129 219.36668258 -108.05057813 215.92061827 -100.25 213.140625 C-92.76430915 208.36658747 -88.79869245 199.08477004 -85.125 191.25 C-84.66367676 190.27458252 -84.20235352 189.29916504 -83.72705078 188.29418945 C-77.98161462 175.90350984 -73.06263302 163.17169224 -68.06819153 150.46574402 C-65.75553902 144.59439665 -63.39305489 138.74454519 -61.0078125 132.90234375 C-52.45914854 111.95400472 -44.17749756 90.93270468 -36.27888489 69.73019409 C-34.89756789 66.03408309 -33.4614598 62.36793054 -31.9609375 58.71875 C-30.16762504 54.28695263 -28.83799392 49.80780294 -27.625 45.1875 C-27.20018417 43.60651111 -26.77441162 42.02577896 -26.34765625 40.4453125 C-26.04819092 39.3320459 -26.04819092 39.3320459 -25.74267578 38.19628906 C-25.07951112 35.79676452 -24.32917682 33.4307687 -23.5625 31.0625 C-22.65145693 28.14105463 -21.99795919 25.25368453 -21.48046875 22.2421875 C-21.29701904 21.17895264 -21.29701904 21.17895264 -21.10986328 20.09423828 C-20.87663667 18.69646086 -20.65670357 17.29637428 -20.45263672 15.89404297 C-19.52541372 10.24539486 -17.43749564 6.16476889 -13.125 2.375 C-8.91723283 -0.20395407 -4.76905167 0.00410065 0 0 Z " fill="#FDFDFD" transform="translate(348.1875,121.8125)"/>
<path d="M0 0 C0.85722656 0.32871094 1.71445313 0.65742188 2.59765625 0.99609375 C10.97176463 4.64634612 16.81705221 10.55428668 20.5 18.9375 C24.4105506 31.2948399 23.01832257 46.21155881 17.3125 57.75 C10.2052563 67.73855871 0.53122038 71.88392762 -11.34277344 74.05737305 C-18.33419107 75.19764107 -25.18234326 75.22476063 -32.25 75.125 C-34.10044922 75.11146484 -34.10044922 75.11146484 -35.98828125 75.09765625 C-38.99240024 75.07436851 -41.99608943 75.04166756 -45 75 C-45.04667382 67.77540081 -45.08204498 60.55083499 -45.10362434 53.32611465 C-45.11398986 49.97010152 -45.12912155 46.61427072 -45.15087891 43.25830078 C-45.1753434 39.38571499 -45.18653247 35.51327442 -45.1953125 31.640625 C-45.20563507 30.455755 -45.21595764 29.27088501 -45.22659302 28.05010986 C-45.22918141 8.51190097 -45.22918141 8.51190097 -40 1 C-29.72965597 -6.37358033 -11.13174372 -4.51484515 0 0 Z " fill="#031651" transform="translate(151,158)"/>
<path d="M0 0 C1.7734375 0.09765625 1.7734375 0.09765625 4 1 C5.43416658 3.15124987 6.5287175 5.11728762 7.625 7.4375 C7.96200928 8.13270752 8.29901855 8.82791504 8.64624023 9.54418945 C16.9115813 27.08155976 22.88476926 45.65430778 29 64 C10.19 64 -8.62 64 -28 64 C-19.81328125 40.609375 -19.81328125 40.609375 -16.0625 31.75 C-15.64282959 30.75129883 -15.22315918 29.75259766 -14.79077148 28.72363281 C-5.43291356 6.71222348 -5.43291356 6.71222348 0 0 Z " fill="#051546" transform="translate(342,205)"/>
</svg>
